<?xml version="1.0" standalone="no"?>
<!DOCTYPE svg PUBLIC "-//W3C//DTD SVG 20010904//EN"
 "http://www.w3.org/TR/2001/REC-SVG-20010904/DTD/svg10.dtd">
<svg version="1.0" xmlns="http://www.w3.org/2000/svg"
 width="450.000000pt" height="450.000000pt" viewBox="0 0 450.000000 450.000000"
 preserveAspectRatio="xMidYMid meet">

<g transform="translate(0.000000,450.000000) scale(0.100000,-0.100000)"
fill="#000000" stroke="none">
<path d="M1794 3296 l-34 -34 0 -124 c0 -95 4 -129 15 -145 14 -21 14 -24 -5
-43 -45 -45 -8 -120 61 -120 34 0 34 0 31 -39 -5 -48 11 -79 43 -87 25 -6 25
-7 25 -129 0 -204 -30 -439 -76 -605 -13 -47 -48 -132 -76 -189 -49 -95 -56
-104 -93 -117 -53 -18 -68 -39 -62 -91 4 -36 1 -44 -23 -62 -59 -43 -60 -134
-2 -183 22 -19 27 -31 27 -70 l0 -48 -170 -1 c-93 0 -196 0 -229 1 -94 2 -206
-11 -206 -25 0 -9 264 -13 1198 -18 658 -3 1201 -2 1206 3 26 26 -14 30 -277
30 l-272 0 0 53 c0 43 4 55 24 71 59 48 60 144 2 187 -25 19 -28 25 -24 64 6
49 -17 82 -66 91 -21 5 -36 20 -64 67 -105 182 -161 434 -174 783 l-6 171 32
19 c35 20 46 47 39 94 -4 29 -3 30 32 30 68 0 106 74 62 118 -16 16 -17 22 -5
37 9 14 13 56 13 151 0 125 -1 134 -24 160 -20 24 -32 28 -87 32 -59 4 -65 2
-74 -20 -8 -18 -19 -23 -53 -25 -37 -3 -44 0 -52 22 -9 23 -14 25 -75 25 -57
0 -65 -2 -65 -19 0 -22 -19 -31 -66 -31 -28 0 -36 5 -44 25 -9 23 -14 25 -75
25 -57 0 -65 -2 -65 -19 0 -22 -19 -31 -66 -31 -28 0 -36 5 -44 25 -9 23 -15
25 -66 25 -50 0 -59 -3 -90 -34z m132 -21 c19 -21 32 -25 78 -25 46 0 58 4 74
25 13 16 30 25 47 25 17 0 37 -10 51 -25 19 -21 32 -25 78 -25 46 0 58 4 74
25 13 16 30 25 47 25 17 0 37 -10 51 -25 19 -21 32 -25 78 -25 47 0 57 4 75
26 18 23 26 26 58 21 63 -10 73 -32 73 -162 0 -161 14 -152 -241 -158 l-206
-5 -6 49 c-3 27 -9 54 -12 59 -14 22 -25 -4 -25 -56 0 -30 -4 -54 -10 -54 -5
0 -10 11 -10 25 0 16 -6 25 -15 25 -8 0 -15 -9 -15 -20 0 -33 -18 -23 -22 13
-4 44 -22 41 -26 -5 l-3 -38 -129 0 c-139 0 -171 8 -189 47 -14 30 -15 202 -1
238 18 48 89 59 126 20z m782 -347 c16 -16 15 -33 -4 -52 -14 -14 -68 -16
-450 -16 -281 0 -442 4 -455 10 -21 12 -25 40 -7 58 17 17 899 17 916 0z
m-115 -117 c21 -17 22 -45 1 -65 -13 -14 -59 -16 -348 -16 -245 0 -335 3 -344
12 -17 17 -15 48 5 70 17 18 34 19 344 16 258 -2 329 -6 342 -17z m-159 -121
l101 0 2 -133 c4 -318 61 -607 157 -792 22 -44 42 -83 44 -87 2 -5 -40 -8 -92
-8 l-96 0 -6 30 c-8 36 -31 59 -39 38 -3 -8 -1 -27 4 -41 7 -19 7 -27 0 -27
-6 0 -13 9 -16 20 -3 11 -12 20 -19 20 -8 0 -14 -9 -14 -20 0 -19 -7 -20 -119
-20 l-120 0 -3 32 c-4 37 -27 50 -35 19 -3 -12 -12 -21 -19 -21 -8 0 -14 -7
-14 -15 0 -12 -14 -15 -70 -15 l-71 0 7 49 c4 33 2 51 -6 56 -16 10 -19 5 -29
-49 -10 -55 -16 -63 -34 -48 -8 7 -17 8 -21 4 -4 -4 -5 5 -1 19 10 41 -11 43
-34 4 -19 -33 -23 -35 -75 -35 l-55 0 43 88 c100 200 152 458 161 802 2 74 4
137 4 139 1 2 83 1 183 -2 99 -4 227 -7 282 -7z m407 -1084 c8 -17 8 -29 0
-45 l-12 -21 -577 0 c-609 0 -602 -1 -602 45 0 46 -7 45 602 45 l578 0 11 -24z
m44 -131 c32 -31 32 -75 1 -112 l-24 -28 -610 0 -610 0 -26 24 c-33 31 -35 85
-4 118 l21 23 614 0 614 0 24 -25z m-51 -191 c22 -22 20 -50 -6 -68 -20 -14
-91 -16 -578 -16 -487 0 -558 2 -578 16 -26 18 -28 46 -6 68 14 14 80 16 584
16 504 0 570 -2 584 -16z"/>
<path d="M2609 3279 c-11 -8 -9 -13 14 -30 23 -18 27 -28 27 -70 0 -37 4 -49
15 -49 11 0 15 12 15 51 0 28 -5 59 -10 69 -15 27 -43 41 -61 29z"/>
<path d="M2653 3109 c-14 -14 -4 -59 13 -59 9 0 14 11 14 29 0 33 -11 46 -27
30z"/>
<path d="M2310 2921 c-24 -16 2 -33 46 -29 27 2 39 8 39 18 0 18 -62 25 -85
11z"/>
<path d="M2425 2920 c-4 -7 -3 -16 3 -22 14 -14 45 -2 40 15 -6 16 -34 21 -43
7z"/>
<path d="M2230 2795 c0 -11 12 -15 45 -15 33 0 45 4 45 15 0 11 -12 15 -45 15
-33 0 -45 -4 -45 -15z"/>
<path d="M2330 2795 c0 -10 10 -15 30 -15 20 0 30 5 30 15 0 10 -10 15 -30 15
-20 0 -30 -5 -30 -15z"/>
<path d="M2410 2795 c0 -8 9 -15 20 -15 11 0 20 7 20 15 0 8 -9 15 -20 15 -11
0 -20 -7 -20 -15z"/>
<path d="M2483 2364 c6 -79 29 -229 43 -276 3 -10 12 -18 21 -18 11 0 14 7 11
28 -8 43 -38 242 -46 296 -4 29 -13 51 -21 54 -12 4 -13 -10 -8 -84z"/>
<path d="M2530 2031 c0 -31 22 -82 34 -78 11 4 11 30 1 75 -6 27 -35 30 -35 3z"/>
<path d="M2560 1916 c0 -28 17 -43 32 -28 7 7 6 17 -1 31 -16 28 -31 27 -31
-3z"/>
<path d="M2370 1605 c0 -11 12 -14 50 -14 32 1 50 6 50 14 0 8 -18 13 -50 14
-38 0 -50 -3 -50 -14z"/>
<path d="M2500 1605 c0 -12 17 -15 90 -15 73 0 90 3 90 15 0 12 -17 15 -90 15
-73 0 -90 -3 -90 -15z"/>
<path d="M2300 1465 c0 -12 13 -15 61 -15 81 0 77 24 -4 28 -46 2 -57 0 -57
-13z"/>
<path d="M2430 1465 c0 -10 11 -15 35 -15 24 0 35 5 35 15 0 10 -11 15 -35 15
-24 0 -35 -5 -35 -15z"/>
<path d="M2520 1466 c0 -12 10 -16 36 -16 45 0 42 24 -4 28 -24 2 -32 -1 -32
-12z"/>
<path d="M2434 1279 c-11 -19 7 -24 77 -24 63 0 74 3 77 18 3 16 -4 18 -72 16
-42 -1 -79 -6 -82 -10z"/>
<path d="M2604 1279 c-10 -17 11 -31 42 -27 18 2 30 10 32 21 3 13 -4 17 -32
17 -19 0 -38 -5 -42 -11z"/>
<path d="M475 1190 c-3 -5 0 -13 8 -16 23 -8 102 0 102 11 0 14 -102 19 -110
5z"/>
<path d="M620 1185 c0 -12 19 -15 115 -15 96 0 115 3 115 15 0 12 -19 15 -115
15 -96 0 -115 -3 -115 -15z"/>
<path d="M900 1185 c0 -12 7 -15 25 -13 14 2 26 8 26 13 0 6 -12 11 -26 13
-18 2 -25 -1 -25 -13z"/>
<path d="M3495 1190 c-3 -5 0 -13 8 -16 23 -8 102 0 102 11 0 14 -102 19 -110
5z"/>
<path d="M3670 1185 c0 -13 8 -16 38 -13 20 2 37 8 37 13 0 6 -17 11 -37 13
-30 3 -38 0 -38 -13z"/>
<path d="M3797 1194 c-20 -20 3 -24 111 -22 69 2 117 7 117 13 0 11 -217 20
-228 9z"/>
</g>
</svg>
