<?xml version="1.0" standalone="no"?>
<!DOCTYPE svg PUBLIC "-//W3C//DTD SVG 20010904//EN"
 "http://www.w3.org/TR/2001/REC-SVG-20010904/DTD/svg10.dtd">
<svg version="1.0" xmlns="http://www.w3.org/2000/svg"
 width="230.000000pt" height="230.000000pt" viewBox="0 0 230.000000 230.000000"
 preserveAspectRatio="xMidYMid meet">

<g transform="translate(0.000000,230.000000) scale(0.100000,-0.100000)"
fill="#000000" stroke="none">
<path d="M677 2219 c-36 -21 -47 -63 -47 -181 0 -77 5 -121 14 -140 13 -24 12
-28 -5 -44 -11 -10 -19 -30 -19 -50 0 -40 38 -74 84 -74 31 0 31 -1 28 -41 -3
-32 1 -46 19 -65 12 -13 28 -24 36 -24 27 0 10 -367 -27 -575 -27 -148 -74
-282 -138 -392 -28 -49 -41 -63 -60 -63 -12 0 -34 -11 -48 -26 -22 -21 -25
-32 -22 -67 3 -35 0 -45 -20 -61 -59 -47 -61 -142 -5 -186 23 -18 27 -29 28
-71 l0 -49 -247 0 c-241 0 -248 -1 -248 -20 0 -20 7 -20 950 -22 1466 -4 1345
-5 1345 12 0 13 -38 15 -275 18 l-275 2 1 55 c0 46 4 57 27 75 37 29 52 89 33
133 -7 18 -24 42 -38 53 -20 16 -23 26 -20 61 3 35 0 46 -22 67 -14 15 -36 26
-49 26 -20 0 -32 16 -74 97 -28 54 -63 135 -77 181 -49 157 -86 429 -86 637
l0 100 36 29 c33 26 36 32 32 72 -3 43 -3 44 28 44 69 0 110 75 67 122 -14 16
-15 23 -5 38 8 13 12 66 12 151 l0 131 -29 29 c-26 26 -37 29 -89 29 -51 0
-60 -3 -65 -20 -4 -17 -14 -20 -55 -20 -41 0 -51 3 -55 20 -4 17 -14 20 -70
20 -56 0 -65 -3 -70 -20 -4 -17 -14 -20 -55 -20 -41 0 -51 3 -55 20 -4 17 -14
20 -70 20 -56 0 -65 -3 -70 -20 -4 -17 -14 -20 -55 -20 -41 0 -51 3 -55 20 -4
17 -13 20 -64 20 -32 0 -66 -5 -76 -11z m119 -44 c19 -20 32 -25 74 -25 41 0
56 5 76 25 14 14 37 25 51 25 15 0 36 -11 49 -25 19 -20 32 -25 74 -25 41 0
56 5 76 25 14 14 37 25 51 25 15 0 36 -11 49 -25 19 -20 32 -25 74 -25 41 0
56 5 76 25 31 31 72 32 108 4 25 -20 26 -23 26 -140 0 -168 14 -159 -244 -159
l-204 0 -7 56 c-8 70 -29 67 -33 -4 -2 -29 -7 -52 -13 -52 -5 0 -9 9 -9 20 0
11 -7 20 -15 20 -8 0 -15 -9 -15 -20 0 -11 -4 -20 -10 -20 -5 0 -10 16 -10 36
0 45 -24 42 -28 -4 l-3 -32 -143 0 c-186 0 -181 -4 -181 162 0 114 1 121 24
139 33 27 79 24 107 -6z m787 -357 c8 -12 7 -21 -2 -32 -12 -14 -65 -16 -467
-16 -447 0 -453 0 -459 20 -16 50 -16 50 468 48 407 -3 451 -5 460 -20z m-121
-105 c22 -20 23 -41 1 -65 -15 -17 -39 -18 -344 -18 -284 0 -330 2 -343 16
-21 21 -20 61 2 73 10 7 140 11 341 11 288 0 326 -2 343 -17z m-56 -236 c4
-334 62 -627 163 -822 20 -38 37 -74 39 -78 2 -4 -38 -6 -90 -5 l-93 3 -11 35
c-16 49 -40 47 -36 -3 2 -25 -1 -37 -7 -32 -6 3 -11 13 -11 21 0 8 -7 14 -15
14 -8 0 -15 -9 -15 -20 0 -19 -7 -20 -119 -20 l-120 0 -3 32 c-4 37 -27 50
-35 19 -3 -11 -10 -18 -15 -15 -5 3 -12 -3 -15 -15 -5 -19 -13 -21 -75 -21
l-70 0 7 49 c4 33 3 51 -5 56 -16 10 -19 5 -29 -49 -9 -49 -21 -69 -28 -48 -3
6 -10 12 -17 12 -7 0 -12 10 -12 21 1 35 -19 32 -37 -6 -16 -34 -18 -35 -73
-35 -30 0 -54 3 -52 8 2 4 18 36 37 72 102 196 161 490 165 817 l1 133 285 0
285 0 1 -123z m297 -956 c22 -17 21 -39 0 -63 -15 -17 -47 -18 -584 -18 -503
0 -569 2 -583 16 -23 22 -20 50 7 69 20 14 81 16 583 13 457 -2 564 -6 577
-17z m53 -144 c31 -37 31 -81 -1 -112 l-24 -25 -611 0 -611 0 -24 25 c-37 36
-34 86 6 120 l32 26 604 -3 605 -3 24 -28z m-45 -201 c8 -17 8 -29 0 -45 l-12
-21 -577 0 c-609 0 -602 -1 -602 45 0 46 -7 45 602 45 l578 0 11 -24z"/>
<path d="M1475 2180 c-8 -13 3 -30 20 -30 15 0 23 -22 27 -80 5 -59 23 -34 23
31 0 48 -4 64 -20 75 -22 16 -41 18 -50 4z"/>
<path d="M1520 1986 c0 -26 4 -36 16 -36 11 0 14 8 12 32 -4 46 -28 49 -28 4z"/>
<path d="M1176 1822 c-2 -4 -1 -14 3 -20 11 -17 91 -4 91 14 0 15 -85 21 -94
6z"/>
<path d="M1290 1816 c0 -16 27 -29 41 -20 19 11 9 34 -16 34 -15 0 -25 -6 -25
-14z"/>
<path d="M1100 1695 c0 -11 12 -15 45 -15 33 0 45 4 45 15 0 11 -12 15 -45 15
-33 0 -45 -4 -45 -15z"/>
<path d="M1203 1698 c2 -7 14 -13 27 -13 13 0 25 6 28 13 2 8 -7 12 -28 12
-21 0 -30 -4 -27 -12z"/>
<path d="M1280 1694 c0 -9 7 -14 17 -12 25 5 28 28 4 28 -12 0 -21 -6 -21 -16z"/>
<path d="M1353 1268 c7 -78 31 -241 43 -280 5 -18 34 -25 34 -9 0 5 -9 60 -19
123 -10 62 -22 143 -26 181 -5 51 -10 67 -22 67 -14 0 -15 -12 -10 -82z"/>
<path d="M1404 946 c-8 -20 13 -96 26 -96 18 0 21 21 10 58 -16 48 -27 60 -36
38z"/>
<path d="M1430 823 c0 -10 5 -25 10 -33 13 -21 31 0 24 28 -7 26 -34 30 -34 5z"/>
<path d="M1244 519 c-9 -15 6 -29 32 -29 19 0 25 5 22 18 -3 18 -44 26 -54 11z"/>
<path d="M1315 520 c-4 -6 -3 -16 3 -22 6 -6 12 -6 17 2 4 6 3 16 -3 22 -6 6
-12 6 -17 -2z"/>
<path d="M1375 519 c-14 -21 11 -29 91 -29 76 0 85 2 82 18 -3 14 -16 17 -85
19 -46 1 -85 -2 -88 -8z"/>
<path d="M1170 365 c0 -13 11 -15 57 -13 81 4 85 28 4 28 -48 0 -61 -3 -61
-15z"/>
<path d="M1300 365 c0 -10 11 -15 35 -15 24 0 35 5 35 15 0 10 -11 15 -35 15
-24 0 -35 -5 -35 -15z"/>
<path d="M1390 365 c0 -12 8 -16 33 -13 17 2 32 8 32 13 0 6 -15 11 -32 13
-25 3 -33 -1 -33 -13z"/>
<path d="M1305 179 c-9 -13 7 -16 83 -18 60 -2 72 1 72 14 0 13 -12 15 -75 14
-42 -1 -78 -5 -80 -10z"/>
<path d="M1477 184 c-13 -13 5 -24 39 -24 24 0 34 5 34 15 0 10 -10 15 -33 15
-19 0 -37 -3 -40 -6z"/>
</g>
</svg>
