<?xml version="1.0" encoding="UTF-8"?>
<svg version="1.1" xmlns="http://www.w3.org/2000/svg" width="250" height="373">
<path d="M0 0 C1.75424538 -0.00422974 1.75424538 -0.00422974 3.54393005 -0.00854492 C4.83851639 -0.00652069 6.13310272 -0.00449646 7.46691895 -0.00241089 C8.83488512 -0.00376491 10.20285093 -0.00554485 11.57081604 -0.00772095 C15.29592081 -0.01229516 19.02099801 -0.01050577 22.74610329 -0.00734186 C26.63607485 -0.0048182 30.52604398 -0.00715582 34.41601562 -0.00872803 C40.94975205 -0.01054971 47.4834772 -0.00814346 54.01721191 -0.00338745 C61.5817739 0.00205517 69.14630893 0.00029251 76.71087027 -0.00521386 C83.19408191 -0.00974504 89.67728542 -0.01039551 96.16049814 -0.00777519 C100.03770292 -0.00621244 103.91489502 -0.00601858 107.792099 -0.00931168 C111.43637294 -0.01219047 115.08061198 -0.01021456 118.72488213 -0.00441742 C120.70827562 -0.00245424 122.69167205 -0.00544367 124.67506409 -0.00854492 C125.844561 -0.0057251 127.01405792 -0.00290527 128.21899414 0 C129.24180733 0.00037703 130.26462051 0.00075405 131.31842804 0.0011425 C133.60949707 0.12698364 133.60949707 0.12698364 134.60949707 1.12698364 C135.76449707 1.12698364 136.91949707 1.12698364 138.10949707 1.12698364 C139.26449707 1.12698364 140.41949707 1.12698364 141.60949707 1.12698364 C141.93949707 1.45698364 142.26949707 1.78698364 142.60949707 2.12698364 C144.62544289 2.36126142 146.64797107 2.54034488 148.67199707 2.68948364 C149.77672363 2.77327271 150.8814502 2.85706177 152.01965332 2.94338989 C152.87430176 3.00397583 153.7289502 3.06456177 154.60949707 3.12698364 C154.60949707 3.78698364 154.60949707 4.44698364 154.60949707 5.12698364 C155.21277832 5.18756958 155.81605957 5.24815552 156.43762207 5.31057739 C157.6364502 5.43626099 157.6364502 5.43626099 158.85949707 5.56448364 C160.04285645 5.68630005 160.04285645 5.68630005 161.25012207 5.81057739 C164.52561186 6.2498401 167.47527435 7.08224274 170.60949707 8.12698364 C172.91926541 8.6169345 175.23358148 9.07651738 177.55090332 9.52932739 C179.60949707 10.12698364 179.60949707 10.12698364 181.60949707 12.12698364 C182.20762207 12.23010864 182.80574707 12.33323364 183.42199707 12.43948364 C186.68630172 13.46540796 188.35373409 15.62735439 190.60949707 18.12698364 C192.79144669 22.49088288 191.79448704 28.39783305 191.79699707 33.18948364 C191.80924316 34.39282349 191.82148926 35.59616333 191.83410645 36.83596802 C191.84523311 43.6269452 191.28084416 49.55434488 189.60949707 56.12698364 C189.64043457 58.04510864 189.64043457 58.04510864 189.67199707 60.00198364 C189.60949707 63.12698364 189.60949707 63.12698364 188.17199707 64.62698364 C187.65637207 65.12198364 187.14074707 65.61698364 186.60949707 66.12698364 C186.48187988 67.17499146 186.3542627 68.22299927 186.22277832 69.30276489 C183.90798719 83.7370357 170.53734987 96.40081126 159.60949707 105.12698364 C155.12965082 108.86580269 150.78998453 112.75181815 146.48449707 116.68948364 C145.981521 117.14863159 145.47854492 117.60777954 144.96032715 118.08084106 C141.76058521 121.01942256 138.66482012 124.03915716 135.60949707 127.12698364 C135.06204834 127.65251831 134.51459961 128.17805298 133.95056152 128.71951294 C116.46336813 145.6701865 105.34537245 168.82472831 103.60949707 193.12698364 C102.94949707 193.12698364 102.28949707 193.12698364 101.60949707 193.12698364 C101.93949707 193.78698364 102.26949707 194.44698364 102.60949707 195.12698364 C102.68042549 197.33427594 102.69364732 199.54365817 102.67199707 201.75198364 C102.66297363 202.94049927 102.6539502 204.12901489 102.64465332 205.35354614 C102.62725098 206.72639771 102.62725098 206.72639771 102.60949707 208.12698364 C103.70938965 208.09556274 104.80928223 208.06414185 105.94250488 208.0317688 C110.02733003 207.92308354 114.11202782 207.85425752 118.19787598 207.7973938 C119.96534726 207.76723881 121.7326691 207.72630686 123.49963379 207.67434692 C126.04183789 207.60146755 128.58206327 207.56751737 131.12512207 207.54104614 C131.91380676 207.51007843 132.70249146 207.47911072 133.51507568 207.44720459 C135.75891113 207.4458313 135.75891113 207.4458313 139.60949707 208.12698364 C145.86182416 215.38192493 148.05871041 225.70055211 148.04309082 235.10354614 C147.50240876 237.62672911 146.63727479 238.57020564 144.60949707 240.12698364 C143.94949707 240.12698364 143.28949707 240.12698364 142.60949707 240.12698364 C141.26957816 241.45369871 139.93741961 242.78826138 138.60949707 244.12698364 C136.95359164 245.28923736 135.26306305 246.40320437 133.54699707 247.47463989 C132.58535645 248.07985474 131.62371582 248.68506958 130.63293457 249.30862427 C129.6352002 249.92930786 128.63746582 250.54999146 127.60949707 251.18948364 C125.6294356 252.42894073 123.65023511 253.66977458 121.67199707 254.91213989 C120.79672363 255.4574939 119.9214502 256.0028479 119.01965332 256.56472778 C116.60238538 258.07520669 116.60238538 258.07520669 114.48059082 259.82791138 C112.60949707 261.12698364 112.60949707 261.12698364 109.60949707 261.12698364 C109.60949707 261.78698364 109.60949707 262.44698364 109.60949707 263.12698364 C108.61949707 263.12698364 107.62949707 263.12698364 106.60949707 263.12698364 C108.29502988 266.39890027 110.19639195 268.7684137 112.85949707 271.25198364 C121.63902163 279.75190551 125.72560348 289.20965975 126.60949707 301.12698364 C126.7255127 302.34128052 126.84152832 303.55557739 126.96105957 304.80667114 C127.86148093 315.0308105 128.59499097 327.44067398 123.73449707 336.81448364 C122.45620833 339.25601903 122.45620833 339.25601903 121.67199707 342.62698364 C119.2392085 349.28908156 113.51587887 354.19966422 108.60949707 359.12698364 C108.04359863 359.72768677 107.4777002 360.32838989 106.89465332 360.94729614 C97.01559025 370.53811069 84.56149071 374.21033942 71.18371582 374.02542114 C70.36951172 374.00060669 69.55530762 373.97579224 68.71643066 373.95022583 C66.21430363 373.87638773 63.7180789 373.86819546 61.21496582 373.86917114 C52.65350468 373.7942194 45.27043999 373.3529027 37.60949707 369.12698364 C36.10902832 368.34967896 36.10902832 368.34967896 34.57824707 367.55667114 C18.11882018 357.19139915 18.11882018 357.19139915 15.96105957 349.95120239 C15.84504395 349.34921021 15.72902832 348.74721802 15.60949707 348.12698364 C13.76761095 346.07427901 13.76761095 346.07427901 11.60949707 345.12698364 C11.48574707 344.32260864 11.36199707 343.51823364 11.23449707 342.68948364 C10.6909997 339.59154862 10.03229644 337.77947094 8.73449707 335.00198364 C6.54530255 329.76869017 5.68574511 324.51640446 4.85949707 318.93948364 C4.73204102 318.08402954 4.60458496 317.22857544 4.4732666 316.34719849 C3.44186014 308.90168786 3.16709165 302.57963423 5.48449707 295.31448364 C5.83254395 294.19428833 6.18059082 293.07409302 6.53918457 291.91995239 C7.60949707 289.12698364 7.60949707 289.12698364 9.60949707 287.12698364 C9.90340332 286.19756958 10.19730957 285.26815552 10.50012207 284.31057739 C11.67830544 280.92952301 13.07442783 278.92182419 15.35949707 276.18948364 C16.3417627 275.00032349 16.3417627 275.00032349 17.34387207 273.78713989 C20.09174155 270.56076211 22.84717555 267.34099459 25.60949707 264.12698364 C21.96674154 261.69011646 18.32289009 259.25489873 14.67810059 256.82107544 C13.44343766 255.99631099 12.2090533 255.17112933 10.97497559 254.3454895 C9.18074036 253.14519794 7.38552189 251.94639198 5.58996582 250.74807739 C5.00045135 250.35381561 4.41093689 249.95955383 3.80355835 249.55334473 C-0.7914425 246.49268288 -5.46339114 243.57100354 -10.19006348 240.71707153 C-12.49294222 239.05295867 -13.89115012 237.53064585 -15.39050293 235.12698364 C-16.26652802 226.92793628 -13.05692038 218.32206297 -9.39050293 211.12698364 C-5.6020782 208.60136716 -2.60516964 208.87306791 1.77746582 208.93167114 C2.57227859 208.93450104 3.36709137 208.93733093 4.18598938 208.94024658 C6.72314545 208.95143659 9.25994779 208.97653874 11.79699707 209.00198364 C13.5176951 209.01201498 15.23839866 209.02114056 16.95910645 209.02932739 C21.1760395 209.05137204 25.39270832 209.08589358 29.60949707 209.12698364 C29.67008301 208.22335083 29.73066895 207.31971802 29.79309082 206.38870239 C29.87687988 205.20921021 29.96066895 204.02971802 30.04699707 202.81448364 C30.16881348 201.05684692 30.16881348 201.05684692 30.29309082 199.26370239 C30.60949707 196.12698364 30.60949707 196.12698364 31.60949707 193.12698364 C30.94949707 193.12698364 30.28949707 193.12698364 29.60949707 193.12698364 C29.46254395 191.94104614 29.31559082 190.75510864 29.16418457 189.53323364 C25.78408418 164.37462097 15.09439767 144.55162645 -2.39050293 126.12698364 C-3.2232373 125.24139771 -4.05597168 124.35581177 -4.91394043 123.44338989 C-10.34338466 117.83084124 -15.97500932 112.99587315 -22.16931152 108.26980591 C-37.21315685 96.65902188 -37.21315685 96.65902188 -39.39050293 90.12698364 C-40.50425293 89.07510864 -40.50425293 89.07510864 -41.64050293 88.00198364 C-45.39325284 84.07865419 -48.62379047 79.32742733 -49.90612793 73.97463989 C-50.28493855 71.89609469 -50.28493855 71.89609469 -52.39050293 70.12698364 C-52.51550293 67.50198364 -52.51550293 67.50198364 -52.39050293 65.12698364 C-53.05050293 65.12698364 -53.71050293 65.12698364 -54.39050293 65.12698364 C-54.39050293 63.14698364 -54.39050293 61.16698364 -54.39050293 59.12698364 C-55.05050293 59.12698364 -55.71050293 59.12698364 -56.39050293 59.12698364 C-56.34925293 58.03385864 -56.30800293 56.94073364 -56.26550293 55.81448364 C-56.25420627 52.54409967 -56.66059002 49.68378712 -57.39050293 46.50198364 C-58.56123657 40.55566747 -58.65225447 34.66702575 -58.70300293 28.62698364 C-58.72040527 27.64649048 -58.73780762 26.66599731 -58.7557373 25.65579224 C-58.75509277 24.7284729 -58.75444824 23.80115356 -58.75378418 22.84573364 C-58.75676514 22.00977661 -58.75974609 21.17381958 -58.76281738 20.31253052 C-58.3028991 17.61273478 -57.54729184 16.76916696 -55.39050293 15.12698364 C-54.40050293 14.79698364 -53.41050293 14.46698364 -52.39050293 14.12698364 C-51.79237793 13.66549927 -51.19425293 13.20401489 -50.57800293 12.72854614 C-47.97668465 10.82400955 -45.37386273 9.71770276 -42.39050293 8.50198364 C-40.84362793 7.86389771 -40.84362793 7.86389771 -39.26550293 7.21292114 C-34.67454247 5.47883553 -30.25613575 4.78197268 -25.39050293 4.12698364 C-24.89550293 5.11698364 -24.89550293 5.11698364 -24.39050293 6.12698364 C-24.39050293 5.13698364 -24.39050293 4.14698364 -24.39050293 3.12698364 C-21.76568566 2.79215502 -19.14066906 2.45905594 -16.51550293 2.12698364 C-15.76913574 2.03159302 -15.02276855 1.93620239 -14.25378418 1.83792114 C-8.61706543 1.12698364 -8.61706543 1.12698364 -6.39050293 1.12698364 C-4.66386222 -0.59965707 -2.35371798 0.00086762 0 0 Z M187.60949707 60.12698364 C188.60949707 62.12698364 188.60949707 62.12698364 188.60949707 62.12698364 Z M122.60949707 289.12698364 C123.60949707 291.12698364 123.60949707 291.12698364 123.60949707 291.12698364 Z M123.60949707 292.12698364 C124.60949707 294.12698364 124.60949707 294.12698364 124.60949707 294.12698364 Z M6.60949707 295.12698364 C7.60949707 297.12698364 7.60949707 297.12698364 7.60949707 297.12698364 Z M5.60949707 299.12698364 C6.60949707 301.12698364 6.60949707 301.12698364 6.60949707 301.12698364 Z M4.60949707 304.12698364 C4.60949707 305.77698364 4.60949707 307.42698364 4.60949707 309.12698364 C4.93949707 309.12698364 5.26949707 309.12698364 5.60949707 309.12698364 C5.60949707 307.47698364 5.60949707 305.82698364 5.60949707 304.12698364 C5.27949707 304.12698364 4.94949707 304.12698364 4.60949707 304.12698364 Z " fill="#A178BE" transform="translate(58.3905029296875,-0.126983642578125)"/>
<path d="M0 0 C1.05687515 0.00014351 1.05687515 0.00014351 2.13510132 0.00028992 C4.51600618 0.00408142 6.89652103 0.02325203 9.27734375 0.04296875 C10.96297031 0.04990404 12.64859872 0.05640246 14.33422852 0.0625 C39.62955251 0.18814692 64.92467047 0.7354296 90.21484375 1.23046875 C90.70107669 2.50799359 91.18551285 3.78620239 91.66918945 5.06469727 C91.93915237 5.77642593 92.2091153 6.4881546 92.48725891 7.22145081 C94.98400662 14.11550725 95.4493299 20.96139805 95.21484375 28.23046875 C94.55484375 28.23046875 93.89484375 28.23046875 93.21484375 28.23046875 C92.89580078 29.02710938 92.89580078 29.02710938 92.5703125 29.83984375 C90.69232717 33.15202536 88.13417904 35.73949031 85.52734375 38.48046875 C84.4433695 39.63872344 83.36003409 40.79757633 82.27734375 41.95703125 C81.75269531 42.51680664 81.22804688 43.07658203 80.6875 43.65332031 C78.77670279 45.69969796 76.89127166 47.76631622 75.02734375 49.85546875 C74.49753906 50.44585937 73.96773438 51.03625 73.421875 51.64453125 C72.00069013 53.33474014 72.00069013 53.33474014 71.21484375 56.23046875 C72.30796875 56.51921875 73.40109375 56.80796875 74.52734375 57.10546875 C78.21484375 58.23046875 78.21484375 58.23046875 81.21484375 60.23046875 C81.21484375 60.89046875 81.21484375 61.55046875 81.21484375 62.23046875 C82.10171875 62.45734375 82.98859375 62.68421875 83.90234375 62.91796875 C87.73109867 64.43502259 89.46470722 66.19826693 92.21484375 69.23046875 C93.39046875 70.37515625 93.39046875 70.37515625 94.58984375 71.54296875 C107.04034395 84.28990943 112.09032661 95.88308811 112.40234375 113.73046875 C112.26711378 124.36446155 109.5908576 137.55471312 102.04296875 145.5234375 C101.4396875 146.08675781 100.83640625 146.65007812 100.21484375 147.23046875 C100.02921875 148.22046875 100.02921875 148.22046875 99.83984375 149.23046875 C99.21484375 151.23046875 99.21484375 151.23046875 96.27734375 153.16796875 C92.90309659 155.44042092 92.45582528 156.50752417 91.21484375 160.23046875 C89.21068537 162.67031373 88.30112511 163.2017083 85.21484375 164.23046875 C82.45525529 164.36355607 79.72181283 164.44274832 76.9609375 164.46875 C75.73770531 164.48085762 75.73770531 164.48085762 74.48976135 164.49320984 C72.76069251 164.50704041 71.03159649 164.51776716 69.30249023 164.52563477 C67.54817612 164.53710932 65.79389566 164.5574888 64.03979492 164.5871582 C45.43707652 164.90168419 45.43707652 164.90168419 37.21484375 160.23046875 C36.21453125 159.71226562 35.21421875 159.1940625 34.18359375 158.66015625 C17.72416686 148.29488425 17.72416686 148.29488425 15.56640625 141.0546875 C15.39238281 140.15169922 15.39238281 140.15169922 15.21484375 139.23046875 C13.37295763 137.17776412 13.37295763 137.17776412 11.21484375 136.23046875 C11.09109375 135.42609375 10.96734375 134.62171875 10.83984375 133.79296875 C10.29634638 130.69503373 9.63764312 128.88295604 8.33984375 126.10546875 C6.15064923 120.87217528 5.29109179 115.61988957 4.46484375 110.04296875 C4.27365967 108.7597876 4.27365967 108.7597876 4.07861328 107.45068359 C3.04720682 100.00517296 2.77243833 93.68311933 5.08984375 86.41796875 C5.43789062 85.29777344 5.7859375 84.17757812 6.14453125 83.0234375 C7.21484375 80.23046875 7.21484375 80.23046875 9.21484375 78.23046875 C9.50875 77.30105469 9.80265625 76.37164062 10.10546875 75.4140625 C11.28365212 72.03300812 12.67977451 70.0253093 14.96484375 67.29296875 C15.6196875 66.50019531 16.27453125 65.70742188 16.94921875 64.890625 C19.69708823 61.66424722 22.45252223 58.4444797 25.21484375 55.23046875 C21.57208822 52.79360156 17.92823677 50.35838384 14.28344727 47.92456055 C13.04878434 47.0997961 11.81439998 46.27461444 10.58032227 45.44897461 C8.78608704 44.24868305 6.99086857 43.04987709 5.1953125 41.8515625 C4.60579803 41.45730072 4.01628357 41.06303894 3.40890503 40.65682983 C-1.18609582 37.59616799 -5.85804446 34.67448865 -10.5847168 31.82055664 C-12.88759554 30.15644377 -14.28580344 28.63413095 -15.78515625 26.23046875 C-16.66118134 18.03142139 -13.4515737 9.42554808 -9.78515625 2.23046875 C-6.11191519 -0.21835862 -4.38134169 -0.01441324 0 0 Z M6.21484375 86.23046875 C7.21484375 88.23046875 7.21484375 88.23046875 7.21484375 88.23046875 Z M5.21484375 90.23046875 C6.21484375 92.23046875 6.21484375 92.23046875 6.21484375 92.23046875 Z M4.21484375 95.23046875 C4.21484375 96.88046875 4.21484375 98.53046875 4.21484375 100.23046875 C4.54484375 100.23046875 4.87484375 100.23046875 5.21484375 100.23046875 C5.21484375 98.58046875 5.21484375 96.93046875 5.21484375 95.23046875 C4.88484375 95.23046875 4.55484375 95.23046875 4.21484375 95.23046875 Z " fill="#8258AE" transform="translate(58.78515625,208.76953125)"/>
<path d="M0 0 C0.85281555 -0.0080365 1.7056311 -0.016073 2.58428955 -0.02435303 C33.8977379 -0.24789686 33.8977379 -0.24789686 44.6875 7.375 C45.1825 8.86 45.1825 8.86 45.6875 10.375 C46.3475 10.375 47.0075 10.375 47.6875 10.375 C56.20257164 17.72229039 58.27116298 28.91858921 60.6875 39.375 C62.03609161 44.91718545 62.03609161 44.91718545 63.6875 50.375 C63.8393237 52.03943755 63.96065965 53.70675802 64.0625 55.375 C64.38278112 59.21837343 64.9550458 62.683486 66.0625 66.375 C67.7177703 72.01724346 68.5633528 77.66013561 69.41479492 83.46386719 C70.62188699 91.44672785 72.29661882 99.31367244 74.06201172 107.19018555 C75.76128276 114.97493031 76.89804353 121.29475223 72.96875 128.5078125 C70.92147485 131.49134153 68.65647745 133.30962438 65.6875 135.375 C65.0275 135.375 64.3675 135.375 63.6875 135.375 C63.6875 136.035 63.6875 136.695 63.6875 137.375 C51.33782061 141.75100684 38.96350325 146.06168982 25.6875 145.375 C25.6875 144.385 25.6875 143.395 25.6875 142.375 C25.0275 142.375 24.3675 142.375 23.6875 142.375 C23.54054688 141.1890625 23.39359375 140.003125 23.2421875 138.78125 C19.86208711 113.62263732 9.1724006 93.79964281 -8.3125 75.375 C-9.14523438 74.48941406 -9.97796875 73.60382813 -10.8359375 72.69140625 C-16.26538173 67.07885759 -21.89700639 62.24388951 -28.09130859 57.51782227 C-43.13515392 45.90703824 -43.13515392 45.90703824 -45.3125 39.375 C-46.42625 38.323125 -46.42625 38.323125 -47.5625 37.25 C-51.31524991 33.32667054 -54.54578754 28.57544369 -55.828125 23.22265625 C-56.20693562 21.14411104 -56.20693562 21.14411104 -58.3125 19.375 C-58.4375 16.75 -58.4375 16.75 -58.3125 14.375 C-58.9725 14.375 -59.6325 14.375 -60.3125 14.375 C-59.9825 12.725 -59.6525 11.075 -59.3125 9.375 C-39.54448188 1.91673675 -21.0027178 0.11114076 0 0 Z " fill="#8258AE" transform="translate(64.3125,50.625)"/>
<path d="M0 0 C12.13361478 -1.44959115 21.16279459 4.92626667 30.5234375 11.98046875 C33.94133132 14.7676156 36.98668583 17.78855011 40 21 C40.7425 21.680625 41.485 22.36125 42.25 23.0625 C44.96628539 26.06981596 46.8966692 28.90556419 47.1015625 33.05859375 C46.8562547 36.24175449 46.47590299 38.4712189 44.3125 40.875 C36.63579622 44.60961265 29.25084756 45.18674459 20.90625 43.30078125 C11.28351732 39.96506593 5.35664844 33.09895008 0.52734375 24.32421875 C-2.2767337 18.18338965 -3.69120783 12.77383678 -3 6 C-1.5 2.4375 -1.5 2.4375 0 0 Z " fill="#65399D" transform="translate(86,317)"/>
<path d="M0 0 C3.3 0 6.6 0 10 0 C10 0.33 10 0.66 10 1 C8.4221875 1.1546875 8.4221875 1.1546875 6.8125 1.3125 C3.12569246 1.97733415 1.03361401 2.88566296 -2 5 C-1.34 3.35 -0.68 1.7 0 0 Z " fill="#6C429E" transform="translate(86,317)"/>
<path d="M0 0 C0.33 0 0.66 0 1 0 C1 2.97 1 5.94 1 9 C0.67 9 0.34 9 0 9 C0 6.03 0 3.06 0 0 Z " fill="#9B7FAB" transform="translate(187,309)"/>
<path d="M0 0 C0.33 0 0.66 0 1 0 C1 2.31 1 4.62 1 7 C0.67 7 0.34 7 0 7 C0 4.69 0 2.38 0 0 Z " fill="#A17ABC" transform="translate(186,318)"/>
<path d="M0 0 C0.33 0 0.66 0 1 0 C1 2.31 1 4.62 1 7 C0.67 7 0.34 7 0 7 C0 4.69 0 2.38 0 0 Z " fill="#A178BD" transform="translate(186,301)"/>
<path d="M0 0 C0.33 0 0.66 0 1 0 C1 1.98 1 3.96 1 6 C0.67 6 0.34 6 0 6 C0 4.02 0 2.04 0 0 Z " fill="#7D6196" transform="translate(62,318)"/>
<path d="M0 0 C1 4 1 4 1 4 Z " fill="#9F7DB4" transform="translate(185,325)"/>
<path d="M0 0 C1 4 1 4 1 4 Z " fill="#805CA9" transform="translate(63,324)"/>
<path d="M0 0 C1 4 1 4 1 4 Z " fill="#9C7EAF" transform="translate(185,297)"/>
<path d="M0 0 C1 4 1 4 1 4 Z " fill="#A279BF" transform="translate(249,52)"/>
<path d="M0 0 C1 4 1 4 1 4 Z " fill="#A279BF" transform="translate(1,51)"/>
<path d="M0 0 C1 4 1 4 1 4 Z " fill="#A279BF" transform="translate(0,47)"/>
<path d="M0 0 C4 1 4 1 4 1 Z " fill="#A179BB" transform="translate(218,5)"/>
<path d="M0 0 C4 1 4 1 4 1 Z " fill="#9B7EB1" transform="translate(213,4)"/>
<path d="" fill="#A07AB9" transform="translate(0,0)"/>
<path d="" fill="#7B6094" transform="translate(0,0)"/>
<path d="" fill="#A07AB8" transform="translate(0,0)"/>
<path d="" fill="#976FB6" transform="translate(0,0)"/>
<path d="" fill="#A278BF" transform="translate(0,0)"/>
<path d="M0 0 C3 1 3 1 3 1 Z " fill="#A079BD" transform="translate(226,7)"/>
<path d="" fill="#805D9B" transform="translate(0,0)"/>
<path d="" fill="#8358AA" transform="translate(0,0)"/>
<path d="" fill="#825AA5" transform="translate(0,0)"/>
<path d="" fill="#8557AC" transform="translate(0,0)"/>
<path d="" fill="#A179BD" transform="translate(0,0)"/>
<path d="" fill="#7E5CA0" transform="translate(0,0)"/>
<path d="" fill="#795EA5" transform="translate(0,0)"/>
<path d="" fill="#7E5E9A" transform="translate(0,0)"/>
<path d="" fill="#9E7DB0" transform="translate(0,0)"/>
<path d="" fill="#825BA9" transform="translate(0,0)"/>
<path d="M0 0 C2 1 2 1 2 1 Z " fill="#9E7DB2" transform="translate(240,12)"/>
<path d="" fill="#8059AF" transform="translate(0,0)"/>
<path d="" fill="#8259AB" transform="translate(0,0)"/>
<path d="" fill="#A07ABB" transform="translate(0,0)"/>
<path d="" fill="#805AAD" transform="translate(0,0)"/>
<path d="" fill="#7D5BAD" transform="translate(0,0)"/>
<path d="" fill="#A279BF" transform="translate(0,0)"/>
</svg>
